<svg width="462" height="71" viewBox="0 0 462 71" fill="none" xmlns="http://www.w3.org/2000/svg">
<path d="M25.716 21.7919V46.8309C29.099 45.0039 31.468 41.8229 32.618 38.2359L32.889 38.3719C32.144 47.3049 26.054 56.2369 16.58 56.2369C7.038 56.2369 0 49.1319 0 37.7619C0 29.2359 5.549 23.8889 12.655 19.0839C11.64 18.8129 10.557 18.6779 9.474 18.6779C4.601 18.6779 1.759 21.9939 1.759 25.3779H1.353C1.285 24.9039 1.285 24.4309 1.285 23.9569C1.285 17.9339 4.466 10.6249 12.181 10.6249C17.121 10.6249 20.911 15.1589 26.663 15.1589C28.964 15.1589 31.806 14.0759 32.956 11.5719H33.159C33.092 15.9719 31.739 20.5059 25.716 21.7919ZM29.37 47.4399C25.986 51.0259 22.332 54.0719 17.595 54.0719C8.798 54.0719 2.031 47.1689 2.031 37.1529C2.031 31.2659 4.467 28.0859 7.174 24.3629H6.903C5.211 26.0549 0.745 30.3179 0.745 37.5589C0.745 48.6579 7.715 55.4929 16.851 55.4929C23.212 55.4929 27.543 51.0949 29.506 47.5079L29.37 47.4399ZM32.076 14.6189C30.926 16.7839 28.49 19.5579 23.55 19.5579C18.61 19.5579 14.076 16.1739 10.083 16.1739C6.428 16.1739 3.925 18.6109 2.977 20.4379L3.045 20.5739C4.331 19.2879 6.293 18.0019 9.474 18.0019C14.752 18.0019 18.136 21.2509 23.482 21.2509C29.167 21.2509 31.738 17.5279 32.212 14.6869L32.076 14.6189ZM13.263 19.2879C9.812 22.8749 6.631 26.7999 6.631 34.4469C6.631 38.6419 8.052 42.9729 11.233 45.6799L13.195 44.6639V26.5289L11.368 27.4759L11.03 26.7989L20.504 21.6549C17.933 21.1149 15.632 19.9649 13.263 19.2879ZM24.971 21.9269C24.497 21.9939 24.024 21.9939 23.482 21.9939C22.535 21.9939 21.655 21.9269 20.775 21.7229V41.4829L11.91 46.2899C13.737 47.6429 15.97 48.4549 18.812 48.4549C21.113 48.4549 23.143 47.9809 24.97 47.1689V21.9269H24.971ZM15.226 25.3789L13.94 26.1229V44.2599L15.226 43.5829V25.3789ZM54.138 27.9499V51.3649C54.138 57.8609 48.386 62.2609 41.957 63.5459L41.822 63.2749C45.003 61.7179 46.83 58.5379 46.83 55.1539V30.9269L43.176 27.6119L41.755 29.1679V48.0489L43.785 49.8759V50.0119L38.304 55.9669L32.011 50.2149V49.9439L34.447 47.3719V17.4609L41.62 9.81494L41.755 9.88194V28.0179L47.643 21.6569L53.801 27.2069L54.951 25.9879L55.493 26.4629L54.138 27.9499ZM35.19 50.0789V49.9439L36.611 48.5219V16.3099L35.19 17.7999V47.8459L33.024 50.0119V50.1469L38.302 54.8839L39.249 53.8009L35.19 50.0789ZM48.995 29.8439L44.596 26.0549L43.649 27.0699L47.574 30.5899V54.9519C47.574 56.5759 47.236 58.2669 46.627 59.2149L46.695 59.2829C48.387 58.0639 48.996 56.2369 48.996 53.8689V29.8439H48.995ZM64.898 41.5519V45.0029L71.462 50.1459L75.252 46.0859L75.794 46.6269L66.997 56.0329L58.064 48.8599L56.711 50.2809L56.169 49.7399L57.726 48.1159V30.9949L70.516 21.6559L77.216 32.4839L64.898 41.5519ZM59.89 47.5079V30.3179L58.469 31.3339V48.1849L66.861 55.0199L67.944 53.8699L59.89 47.5079ZM65.034 26.6639L64.898 26.7319V40.6049L70.921 36.2059L65.034 26.6639ZM66.793 25.3109L65.575 26.1899L71.531 35.7319L72.749 34.8519L66.793 25.3109Z" fill="white"/>
<path d="M121.327 55.966L111.92 47.845L104.747 55.966L95.002 47.574V34.311H93.107C91.415 34.311 90.536 35.394 90.129 36.679H89.926C89.791 36.138 89.588 35.191 89.588 34.108C89.588 32.348 90.062 27.747 95.002 27.747V16.107C95.002 13.874 92.363 12.994 92.363 10.016C92.363 6.16 96.017 2.37 102.717 0L102.988 0.203C100.552 1.625 99.266 2.978 99.266 5.888C99.266 10.355 103.597 9.204 103.597 16.242V18.949L111.515 10.625L119.839 18.813L127.689 10.625L135.268 18.069V43.108L121.327 55.966ZM97.168 46.492V32.214H93.378C91.415 32.214 90.536 33.499 90.4 34.65L90.467 34.718C91.144 33.974 91.821 33.568 93.377 33.568H95.745V47.238L104.678 54.953L105.693 53.734L97.168 46.492ZM97.168 15.43C97.168 12.656 94.732 11.708 94.732 9.949C94.732 7.512 95.679 5.483 97.168 3.588L97.033 3.521C95.003 5.078 93.108 7.582 93.108 10.017C93.108 12.454 95.747 13.604 95.747 15.77V27.748H97.168V15.43ZM111.447 22.198L106.304 17.19L103.597 19.964V43.92L109.755 49.131L111.447 47.236V22.198ZM113.612 46.357V21.251L107.86 15.566L106.777 16.649L112.191 21.859V47.101L121.327 55.019L122.41 54.003L113.612 46.357ZM126.741 21.318L122.478 17.257L120.042 19.761V43.853L126.674 49.672L126.741 49.605V21.318ZM128.906 20.371L123.966 15.566L122.951 16.649L127.485 20.98V49.267L128.906 47.913V20.371Z" fill="white"/>
<path d="M157.661 55.9659L151.232 50.1459L145.48 55.9659L138.442 49.7399L137.494 50.7549L136.953 50.2139L138.171 48.9279V30.7929L150.894 21.5889L158.203 27.2739L159.489 25.9199L160.031 26.4619L158.542 28.0179V46.7639L162.128 50.0789L163.279 48.8609L163.82 49.3349L157.661 55.9659ZM140.337 48.4549V30.1829L138.916 31.1979V49.1319L145.413 54.9519L146.496 53.8689L140.337 48.4549ZM151.232 30.6569L145.683 26.3259L145.48 26.4619V46.1539L150.082 50.1459L151.232 48.9959V30.6569ZM153.398 49.0639V29.6419L147.646 24.9719L146.293 25.9189L151.977 30.3859V49.7399L157.662 54.8829L158.677 53.7999L153.398 49.0639ZM177.354 33.9049H184.324V48.3869L173.564 55.9659C172.143 54.3419 170.112 53.1919 167.609 53.1919C165.579 53.1919 163.954 53.8689 161.789 55.6959L161.451 55.5599L170.655 42.1609H164.97V29.5739L176.272 21.7239C177.625 22.8069 178.64 23.4149 180.4 23.4149C181.754 23.4149 183.716 23.1439 185.205 21.9269L185.476 22.0619L177.354 33.9049ZM169.775 51.2289C167.812 51.2289 166.256 51.9059 164.902 52.8529V52.9889C165.985 52.5149 167.068 52.3799 168.083 52.3799C169.639 52.3799 172.076 53.1249 173.7 55.0199L175.257 53.8699C173.97 52.3799 172.414 51.2289 169.775 51.2289ZM177.015 39.8599H173.225L165.307 51.2979L165.375 51.4329C167.337 50.0119 169.232 49.0649 171.533 49.0649C173.563 49.0649 175.661 50.0119 176.947 51.6359L177.015 51.5689V39.8599ZM167.135 39.8599V28.9659L165.714 29.9809V41.3499H171.195L172.278 39.8609H167.135V39.8599ZM181.279 26.5959C179.858 27.6119 179.046 28.1529 176.677 28.1529C175.323 28.1529 173.699 27.5439 172.414 26.1899L172.279 26.2579V36.1379H174.85L181.347 26.6629L181.279 26.5959ZM178.031 25.9869C176.813 25.9869 175.257 25.3789 174.241 24.0249L172.549 25.1749C173.835 26.7319 175.053 27.4079 176.947 27.4079C178.165 27.4079 179.925 27.0689 181.752 25.5119L181.819 25.3099C180.67 25.7849 179.249 25.9869 178.031 25.9869ZM179.181 37.6279H174.782L173.767 39.0489H177.76V52.1769L179.181 51.1619V37.6279ZM207.671 27.9499V51.3649C207.671 57.8609 201.919 62.2609 195.49 63.5459L195.355 63.2749C198.536 61.7179 200.363 58.5379 200.363 55.1539V30.9269L196.709 27.6119L195.288 29.1679V48.0489L197.318 49.8759V50.0119L191.837 55.9669L185.544 50.2149V49.9439L187.98 47.3719V17.4609L195.153 9.81494L195.288 9.88194V28.0179L201.176 21.6569L207.334 27.2069L208.484 25.9879L209.026 26.4629L207.671 27.9499ZM188.723 50.0789V49.9439L190.144 48.5219V16.3099L188.723 17.7989V47.8449L186.557 50.0109V50.1459L191.835 54.8829L192.782 53.7999L188.723 50.0789ZM202.528 29.8439L198.129 26.0549L197.182 27.0699L201.107 30.5899V54.9519C201.107 56.5759 200.769 58.2669 200.16 59.2149L200.228 59.2829C201.92 58.0639 202.529 56.2369 202.529 53.8689V29.8439H202.528ZM219.988 55.9659L214.168 50.6199L212.814 52.0409L212.272 51.4989L213.829 49.8079V30.2509L210.987 27.5439L209.904 28.7629L209.362 28.2209L215.452 21.5889L220.866 26.4619L222.22 24.9729L222.829 25.4469L221.137 27.2739V47.0349L224.386 50.0799L225.875 48.5229L226.416 49.0649L219.988 55.9659ZM215.995 49.3349V29.1679L212.476 25.9199L211.529 27.0029L214.574 29.9129V50.0119L219.988 54.8839L221.003 53.8009L215.995 49.3349ZM218.025 21.0479L212.476 15.9729L217.552 10.5589L223.101 15.6339L218.025 21.0479ZM214.574 14.8889L213.559 15.9039L217.957 20.0319L218.972 18.8819L214.574 14.8889Z" fill="white"/>
<path d="M248.603 55.9661L242.715 50.6201V30.8601L239.128 27.6121L237.233 29.6421V47.9131L239.331 49.8751V50.1461L233.782 55.9661L227.488 50.2141V50.0111L229.925 47.4401V30.3861L226.744 27.4761L225.458 28.8971L224.917 28.3561L231.075 21.6561L237.233 27.1381V28.4911L243.662 21.6561L249.684 27.0701L251.038 25.6491L251.647 26.1901L250.023 27.8821V47.2361L253.068 50.0781L254.557 48.4541L255.098 48.9951L248.603 55.9661ZM230.737 50.0791V49.9441C230.737 50.0791 232.091 48.5901 232.091 48.5901V29.3701L228.233 25.8511L227.285 26.8661L230.669 29.9791V47.8441L228.571 50.0101V50.1451L233.782 54.8821L234.864 53.7321L230.737 50.0791ZM244.88 49.5381V29.7101L240.685 25.9201L239.602 27.0701L243.459 30.5211V50.2141L248.534 54.9511L249.617 53.8001L244.88 49.5381ZM267.686 68.1471C265.454 65.7111 263.897 64.6961 261.799 64.6961C259.566 64.6961 256.994 65.5761 254.355 66.9971L254.152 66.7951L263.491 55.9671L256.859 50.6891L255.573 52.0431L255.032 51.5691L256.52 49.9451V30.7931L269.378 21.5891L276.551 27.2741L277.77 25.9201L278.311 26.4621L276.89 28.0181V51.1631C276.89 54.6821 278.852 54.5471 278.852 57.1851C278.852 60.2301 274.453 63.0721 267.686 68.1471ZM258.686 49.4021V30.2511L257.265 31.2671V50.0121L263.964 55.4261L264.98 54.2071L258.686 49.4021ZM263.423 62.9371C261.19 62.9371 259.159 63.6141 257.265 64.8991V65.0351C258.483 64.5611 259.836 63.9521 262.137 63.9521C264.235 63.9521 265.994 65.1021 267.754 67.1331L269.108 66.0501C267.415 64.0881 265.385 62.9371 263.423 62.9371ZM271.679 56.4401C269.988 55.3571 269.581 54.2071 269.581 51.2971V50.0781L258.347 63.0711L258.415 63.1381C260.58 61.8531 262.543 60.9061 265.724 60.9061C268.431 60.9061 270.258 61.9881 272.356 63.7481C273.642 62.6651 274.521 61.5831 274.521 59.8911C274.521 58.5381 273.37 57.5231 271.679 56.4401ZM269.581 30.6571L263.964 26.2591L263.828 26.3941V47.1691L268.16 50.5531L269.581 48.9291V30.6571ZM273.709 55.4931C271.949 54.1391 271.746 52.9891 271.746 50.0791V29.5071L266.061 24.9051L264.776 25.7851L270.325 30.1831V51.0261C270.325 53.9361 270.461 54.7491 272.288 55.9661C273.912 57.0491 275.197 58.1991 275.197 59.7561C275.197 60.1611 275.13 60.8381 275.13 60.8381L275.197 60.9061C275.536 60.5671 275.942 60.0261 275.942 59.1461C275.943 57.6581 275.198 56.6431 273.709 55.4931ZM289.951 55.9661L283.725 51.0941L282.439 52.5151L281.898 51.9731L283.386 50.3491V26.6641H279.461L279.325 26.5291L281.694 23.0091H283.385V18.4761L290.559 10.8291L290.694 10.9651V23.0101H296.108L296.244 23.1461L293.875 26.6651H290.694V47.1701L294.417 50.0131L295.838 48.4561L296.379 48.9971L289.951 55.9661ZM285.552 17.3251L284.131 18.8821V23.0101H285.552V17.3251ZM285.552 49.6731V26.6641H284.131V50.4851L289.883 54.9521L290.898 53.8691L285.552 49.6731ZM318.508 28.6271V47.5751L307.071 56.0341L298.476 49.5381L297.461 50.6881L296.92 50.1461L298.138 48.7931V30.2511L310.117 21.6561L318.102 27.8831L319.387 26.5291L319.929 27.0701L318.508 28.6271ZM300.305 48.1171V29.6421L298.883 30.6571V48.8611L307.004 55.0871L308.29 54.1401L300.305 48.1171ZM311.2 30.8601L305.515 26.3931L305.448 26.4611V46.6271L311.2 50.9581V30.8601ZM313.366 29.6421L307.072 24.7691L305.787 25.7161L311.945 30.4531V51.5001L313.366 50.4181V29.6421ZM344.36 55.9661L338.472 50.6201V30.8601L334.885 27.6121L332.99 29.6421V47.9131L335.088 49.8751V50.1461L329.539 55.9661L323.245 50.2141V50.0111L325.682 47.4401V30.3861L322.501 27.4761L321.215 28.8971L320.674 28.3561L326.832 21.6561L332.99 27.1381V28.4911L339.419 21.6561L345.442 27.0701L346.795 25.6491L347.404 26.1901L345.78 27.8821V47.2361L348.825 50.0781L350.314 48.4541L350.855 48.9951L344.36 55.9661ZM326.493 50.0791V49.9441C326.493 50.0791 327.847 48.5901 327.847 48.5901V29.3701L323.99 25.8511L323.043 26.8661L326.427 29.9791V47.8441L324.329 50.0101V50.1451L329.54 54.8821L330.623 53.7321L326.493 50.0791ZM340.637 49.5381V29.7101L336.442 25.9201L335.359 27.0701L339.216 30.5211V50.2141L344.291 54.9511L345.374 53.8001L340.637 49.5381Z" fill="white"/>
<path d="M386.166 55.966C384.271 53.936 383.595 53.259 381.361 52.65V54.139V65.914L381.225 65.981L378.518 63.544L370.668 70.785L370.532 70.718V52.515C368.164 53.056 365.66 54.275 363.223 56.71L363.088 56.643C363.562 51.432 366.133 47.575 370.531 46.086V32.89H369.11C367.148 32.89 366.065 33.905 365.118 35.732H364.915C364.712 35.124 364.576 34.175 364.576 32.62C364.576 29.777 366.674 26.8 370.126 26.8H370.531V19.491L367.757 16.987L366.403 18.341L365.929 17.867L372.764 10.626L379.125 16.446V22.604L380.614 20.98V13.197H381.358V20.303L390.358 10.625L398.005 17.596V47.034L386.166 55.966ZM370.534 50.011C367.76 50.552 365.798 52.244 364.512 54.477L364.579 54.613C366.475 52.989 368.233 52.245 370.534 51.703V50.011ZM372.7 30.59H368.978C366.406 30.59 365.391 32.214 365.324 34.109L365.391 34.176C366.203 32.822 367.015 32.349 368.639 32.147H371.279V69.028L372.7 67.674V30.59ZM372.7 18.408L369.316 15.296L368.233 16.446L371.279 19.152V26.799H372.7V18.408ZM380.618 22.265L379.129 23.822V63.005L380.618 64.359V22.265ZM389.483 20.709L385.49 17.055L381.362 21.522V45.342C384.881 45.681 387.317 46.696 389.415 48.996L389.483 48.929V20.709ZM381.362 50.011V51.771C383.663 52.312 384.61 52.989 386.234 54.883L387.791 53.665C386.166 51.635 384.542 50.418 381.362 50.011ZM391.648 19.627L387.046 15.363L385.963 16.513L390.227 20.438V51.906L391.648 50.823V19.627ZM421.627 28.627V47.575L410.189 56.034L401.595 49.538L400.579 50.688L400.038 50.146L401.256 48.793V30.251L413.235 21.656L421.22 27.883L422.505 26.529L423.047 27.07L421.627 28.627ZM403.423 48.117V29.642L402.001 30.657V48.861L410.122 55.087L411.408 54.14L403.423 48.117ZM414.318 30.86L408.634 26.393L408.566 26.461V46.627L414.318 50.958V30.86ZM416.484 29.642L410.19 24.769L408.905 25.716L415.063 30.453V51.5L416.484 50.418V29.642ZM437.326 33.905H444.297V48.387L433.537 55.966C432.116 54.342 430.086 53.192 427.582 53.192C425.552 53.192 423.928 53.869 421.762 55.696L421.424 55.56L430.627 42.161H424.942V29.574L436.244 21.724C437.598 22.807 438.612 23.415 440.372 23.415C441.726 23.415 443.687 23.144 445.177 21.927L445.448 22.062L437.326 33.905ZM429.747 51.229C427.785 51.229 426.228 51.906 424.875 52.853V52.989C425.958 52.515 427.04 52.38 428.056 52.38C429.613 52.38 432.048 53.125 433.672 55.02L435.229 53.87C433.944 52.38 432.387 51.229 429.747 51.229ZM436.989 39.86H433.199L425.282 51.298L425.349 51.433C427.311 50.012 429.206 49.065 431.507 49.065C433.537 49.065 435.635 50.012 436.921 51.636L436.988 51.569V39.86H436.989ZM427.109 39.86V28.966L425.687 29.981V41.35H431.168L432.251 39.861H427.109V39.86ZM441.252 26.596C439.83 27.612 439.019 28.153 436.649 28.153C435.295 28.153 433.671 27.544 432.386 26.19L432.25 26.258V36.138H434.821L441.318 26.663L441.252 26.596ZM438.003 25.987C436.785 25.987 435.229 25.379 434.214 24.025L432.522 25.175C433.808 26.732 435.026 27.408 436.921 27.408C438.139 27.408 439.899 27.069 441.726 25.512L441.793 25.31C440.643 25.785 439.222 25.987 438.003 25.987ZM439.154 37.628H434.756L433.741 39.049H437.733V52.177L439.154 51.162V37.628ZM455.531 55.966L449.305 51.094L448.019 52.515L447.478 51.973L448.966 50.349V26.664H445.041L444.906 26.529L447.274 23.009H448.965V18.476L456.139 10.829L456.275 10.965V23.01H461.688L461.824 23.146L459.455 26.665H456.275V47.17L459.997 50.013L461.418 48.456L461.959 48.997L455.531 55.966ZM451.132 17.325L449.711 18.882V23.01H451.132V17.325ZM451.132 49.673V26.664H449.711V50.485L455.463 54.952L456.478 53.869L451.132 49.673Z" fill="white"/>
</svg>
